<svg fill="#40C057" xmlns="http://www.w3.org/2000/svg"  viewBox="0 0 50 50" width="50px" height="50px"><path d="M25,2C12.317,2,2,12.317,2,25s10.317,23,23,23s23-10.317,23-23S37.683,2,25,2z M25.904,13.734c0-0.276,0.224-0.5,0.5-0.5 h3.149c0.276,0,0.5,0.224,0.5,0.5v2.447c0,0.276-0.224,0.5-0.5,0.5h-3.149c-0.276,0-0.5-0.224-0.5-0.5V13.734z M18.883,13.734 c0-0.276,0.224-0.5,0.5-0.5h3.149c0.276,0,0.5,0.224,0.5,0.5v2.447c0,0.276-0.224,0.5-0.5,0.5h-3.149c-0.276,0-0.5-0.224-0.5-0.5 V13.734z M36.723,18.521c0,2.209-1.791,4-4,4h-2.638v13.129c0,0.415-0.257,0.787-0.645,0.935l-2.795,1.061 c-0.327,0.124-0.678-0.117-0.678-0.467V22.521h-2.872v13.129c0,0.415-0.257,0.787-0.645,0.935l-2.795,1.061 c-0.327,0.124-0.678-0.117-0.678-0.467V22.521h-2.617v2.553c0,0-4.165,0.016-4.117-0.032v-2.638c0-2.209,1.791-4,4-4h16.266v-2.394 h4.213V18.521z"/></svg>